# Blender v2.77 (sub 0) OBJ File: 'arrows.blend'
# www.blender.org
mtllib arrows.mtl
o g_Cube.003
v -0.000000 1.010000 -0.100000
v 0.086602 1.010000 0.050000
v -0.000000 1.210000 0.000000
v -0.086603 1.010000 0.050000
v 0.010000 0.010000 -0.010000
v 0.010000 0.010000 0.010000
v -0.010000 0.010000 0.010000
v -0.010000 0.010000 -0.010000
v 0.010000 1.010000 -0.010000
v 0.010000 1.010000 0.010000
v -0.010000 1.010000 -0.010000
v -0.010000 1.010000 0.010000
vt 0.0000 0.0000
vt 1.0000 0.0000
vt 1.0000 1.0000
vt 0.0000 0.0000
vt 1.0000 1.0000
vt 0.0000 0.0000
vt 1.0000 1.0000
vt 1.0000 0.0000
vt 0.0000 0.0000
vt 1.0000 0.0000
vt 1.0000 1.0000
vt 0.0000 1.0000
vt 0.0000 0.0000
vt 1.0000 0.0000
vt 1.0000 1.0000
vt 0.0000 1.0000
vt 0.0000 0.0000
vt 1.0000 0.0000
vt 1.0000 1.0000
vt 0.0000 1.0000
vt 0.0000 0.0000
vt 1.0000 0.0000
vt 1.0000 1.0000
vt 0.0000 0.0000
vt 1.0000 0.0000
vt 0.0000 1.0000
vn 0.8402 0.2425 -0.4851
vn 0.0000 0.2425 0.9701
vn -0.8402 0.2425 -0.4851
vn 0.0000 -1.0000 0.0000
vn 0.0000 0.0000 -1.0000
vn 0.0000 1.0000 0.0000
vn 0.0000 0.0000 1.0000
vn 1.0000 0.0000 0.0000
vn -1.0000 0.0000 -0.0000
usemtl Material.002
s off
f 1/1/1 3/2/1 2/3/1
f 2/4/2 3/2/2 4/5/2
f 4/6/3 3/2/3 1/7/3
f 1/1/4 2/8/4 4/5/4
f 5/9/5 8/10/5 11/11/5 9/12/5
f 9/13/6 11/14/6 12/15/6 10/16/6
f 7/17/7 6/18/7 10/19/7 12/20/7
f 6/21/8 5/22/8 9/23/8 10/16/8
f 8/24/9 7/25/9 12/15/9 11/26/9
o r_Cube.002
v 1.010000 -0.100000 0.000000
v 1.010000 0.050000 0.086603
v 1.210000 0.000000 0.000000
v 1.010000 0.050000 -0.086603
v 0.010000 -0.010000 -0.010000
v 0.010000 -0.010000 0.010000
v 0.010000 0.010000 -0.010000
v 0.010000 0.010000 0.010000
v 1.010000 -0.010000 -0.010000
v 1.010000 -0.010000 0.010000
v 1.010000 0.010000 -0.010000
v 1.010000 0.010000 0.010000
vt 0.0000 0.0000
vt 1.0000 0.0000
vt 1.0000 1.0000
vt 0.0000 0.0000
vt 1.0000 1.0000
vt 0.0000 0.0000
vt 1.0000 1.0000
vt 1.0000 0.0000
vt 0.0000 0.0000
vt 1.0000 0.0000
vt 1.0000 1.0000
vt 0.0000 1.0000
vt 0.0000 0.0000
vt 1.0000 0.0000
vt 0.0000 1.0000
vt 0.0000 0.0000
vt 1.0000 0.0000
vt 1.0000 1.0000
vt 0.0000 1.0000
vt 0.0000 0.0000
vt 1.0000 0.0000
vt 1.0000 1.0000
vt 0.0000 1.0000
vt 0.0000 0.0000
vt 1.0000 0.0000
vt 1.0000 1.0000
vn 0.2425 -0.4851 0.8402
vn 0.2425 0.9701 0.0000
vn 0.2425 -0.4851 -0.8402
vn -1.0000 0.0000 0.0000
vn 0.0000 1.0000 0.0000
vn 1.0000 0.0000 0.0000
vn 0.0000 0.0000 1.0000
vn 0.0000 0.0000 -1.0000
vn 0.0000 -1.0000 0.0000
usemtl Material
s off
f 13/27/10 15/28/10 14/29/10
f 14/30/11 15/28/11 16/31/11
f 16/32/12 15/28/12 13/33/12
f 13/27/13 14/34/13 16/31/13
f 19/35/14 20/36/14 24/37/14 23/38/14
f 21/39/15 23/40/15 24/37/15 22/41/15
f 20/42/16 18/43/16 22/44/16 24/45/16
f 17/46/17 19/47/17 23/48/17 21/49/17
f 18/50/18 17/51/18 21/52/18 22/41/18
o b_Cube.001
v -0.000000 -0.100000 -1.010000
v 0.086602 0.050000 -1.010000
v -0.000000 -0.000000 -1.210000
v -0.086603 0.050000 -1.010000
v 0.010000 -0.010000 -0.010000
v -0.010000 -0.010000 -0.010000
v 0.010000 0.010000 -0.010000
v -0.010000 0.010000 -0.010000
v 0.010000 -0.010000 -1.010000
v -0.010000 -0.010000 -1.010000
v 0.010000 0.010000 -1.010000
v -0.010000 0.010000 -1.010000
vt 0.0000 0.0000
vt 1.0000 0.0000
vt 1.0000 1.0000
vt 0.0000 0.0000
vt 1.0000 1.0000
vt 0.0000 0.0000
vt 1.0000 1.0000
vt 1.0000 0.0000
vt 0.0000 0.0000
vt 1.0000 0.0000
vt 1.0000 1.0000
vt 0.0000 1.0000
vt 0.0000 0.0000
vt 1.0000 0.0000
vt 1.0000 1.0000
vt 0.0000 0.0000
vt 1.0000 0.0000
vt 1.0000 1.0000
vt 0.0000 1.0000
vt 0.0000 0.0000
vt 1.0000 0.0000
vt 0.0000 1.0000
vt 0.0000 0.0000
vt 1.0000 0.0000
vt 1.0000 1.0000
vt 0.0000 1.0000
vn 0.8402 -0.4851 -0.2425
vn 0.0000 0.9701 -0.2425
vn -0.8402 -0.4851 -0.2425
vn 0.0000 0.0000 1.0000
vn 0.0000 1.0000 0.0000
vn 0.0000 0.0000 -1.0000
vn -1.0000 0.0000 0.0000
vn 0.0000 -1.0000 0.0000
vn 1.0000 -0.0000 0.0000
usemtl Material.001
s off
f 25/53/19 27/54/19 26/55/19
f 26/56/20 27/54/20 28/57/20
f 28/58/21 27/54/21 25/59/21
f 25/53/22 26/60/22 28/57/22
f 32/61/23 31/62/23 35/63/23 36/64/23
f 35/65/24 33/66/24 34/67/24 36/64/24
f 30/68/25 32/69/25 36/70/25 34/71/25
f 29/72/26 30/73/26 34/67/26 33/74/26
f 31/75/27 29/76/27 33/77/27 35/78/27
